<mxfile host="Electron" agent="Mozilla/5.0 (Macintosh; Intel Mac OS X 10_15_7) AppleWebKit/537.36 (KHTML, like Gecko) draw.io/25.0.2 Chrome/128.0.6613.186 Electron/32.2.5 Safari/537.36" version="25.0.2">
  <diagram name="第 1 页" id="EOhsosSodKeCFRmTkLQm">
    <mxGraphModel dx="1080" dy="782" grid="1" gridSize="10" guides="1" tooltips="1" connect="1" arrows="1" fold="1" page="1" pageScale="1" pageWidth="4000" pageHeight="20000" math="0" shadow="0">
      <root>
        <mxCell id="0" />
        <mxCell id="1" parent="0" />
        <mxCell id="FLx7aFaUF3Uu00O6tHU3-2" value="应用部署架构" style="swimlane;whiteSpace=wrap;html=1;strokeWidth=2;" parent="1" vertex="1">
          <mxGeometry x="370" y="160" width="480" height="420" as="geometry" />
        </mxCell>
        <mxCell id="FLx7aFaUF3Uu00O6tHU3-4" style="edgeStyle=orthogonalEdgeStyle;rounded=0;orthogonalLoop=1;jettySize=auto;html=1;entryX=0.5;entryY=0;entryDx=0;entryDy=0;strokeWidth=2;" parent="FLx7aFaUF3Uu00O6tHU3-2" source="FLx7aFaUF3Uu00O6tHU3-1" target="FLx7aFaUF3Uu00O6tHU3-3" edge="1">
          <mxGeometry relative="1" as="geometry" />
        </mxCell>
        <mxCell id="FLx7aFaUF3Uu00O6tHU3-1" value="ssc-home-workbench" style="rounded=1;whiteSpace=wrap;html=1;strokeWidth=2;" parent="FLx7aFaUF3Uu00O6tHU3-2" vertex="1">
          <mxGeometry x="30" y="80" width="100" height="40" as="geometry" />
        </mxCell>
        <mxCell id="FLx7aFaUF3Uu00O6tHU3-6" style="edgeStyle=orthogonalEdgeStyle;rounded=0;orthogonalLoop=1;jettySize=auto;html=1;entryX=0.5;entryY=0;entryDx=0;entryDy=0;strokeWidth=2;" parent="FLx7aFaUF3Uu00O6tHU3-2" source="FLx7aFaUF3Uu00O6tHU3-3" target="FLx7aFaUF3Uu00O6tHU3-5" edge="1">
          <mxGeometry relative="1" as="geometry" />
        </mxCell>
        <mxCell id="FLx7aFaUF3Uu00O6tHU3-3" value="ssc-homedecoration" style="rounded=1;whiteSpace=wrap;html=1;strokeWidth=2;" parent="FLx7aFaUF3Uu00O6tHU3-2" vertex="1">
          <mxGeometry x="30" y="170" width="100" height="40" as="geometry" />
        </mxCell>
        <mxCell id="FLx7aFaUF3Uu00O6tHU3-9" style="edgeStyle=orthogonalEdgeStyle;rounded=0;orthogonalLoop=1;jettySize=auto;html=1;entryX=0.5;entryY=0;entryDx=0;entryDy=0;strokeWidth=2;" parent="FLx7aFaUF3Uu00O6tHU3-2" source="FLx7aFaUF3Uu00O6tHU3-5" target="FLx7aFaUF3Uu00O6tHU3-8" edge="1">
          <mxGeometry relative="1" as="geometry" />
        </mxCell>
        <mxCell id="FLx7aFaUF3Uu00O6tHU3-11" style="edgeStyle=orthogonalEdgeStyle;rounded=0;orthogonalLoop=1;jettySize=auto;html=1;entryX=0;entryY=0.5;entryDx=0;entryDy=0;strokeWidth=2;dashed=1;" parent="FLx7aFaUF3Uu00O6tHU3-2" source="FLx7aFaUF3Uu00O6tHU3-5" target="FLx7aFaUF3Uu00O6tHU3-10" edge="1">
          <mxGeometry relative="1" as="geometry" />
        </mxCell>
        <mxCell id="FLx7aFaUF3Uu00O6tHU3-5" value="service-control-center" style="rounded=1;whiteSpace=wrap;html=1;strokeWidth=2;" parent="FLx7aFaUF3Uu00O6tHU3-2" vertex="1">
          <mxGeometry x="30" y="260" width="100" height="40" as="geometry" />
        </mxCell>
        <mxCell id="FLx7aFaUF3Uu00O6tHU3-8" value="DB&amp;nbsp;" style="rounded=1;whiteSpace=wrap;html=1;strokeWidth=2;" parent="FLx7aFaUF3Uu00O6tHU3-2" vertex="1">
          <mxGeometry x="30" y="350" width="100" height="40" as="geometry" />
        </mxCell>
        <mxCell id="FLx7aFaUF3Uu00O6tHU3-10" value="servicecenter" style="rounded=1;whiteSpace=wrap;html=1;strokeWidth=2;dashed=1;" parent="FLx7aFaUF3Uu00O6tHU3-2" vertex="1">
          <mxGeometry x="205" y="260" width="100" height="40" as="geometry" />
        </mxCell>
        <mxCell id="FLx7aFaUF3Uu00O6tHU3-12" value="----- 表示逐渐废弃" style="text;html=1;strokeColor=none;fillColor=none;align=center;verticalAlign=middle;whiteSpace=wrap;rounded=0;" parent="FLx7aFaUF3Uu00O6tHU3-2" vertex="1">
          <mxGeometry x="330" y="40" width="140" height="30" as="geometry" />
        </mxCell>
        <mxCell id="FLx7aFaUF3Uu00O6tHU3-49" style="edgeStyle=none;rounded=0;orthogonalLoop=1;jettySize=auto;html=1;entryX=0.5;entryY=0;entryDx=0;entryDy=0;strokeWidth=2;dashed=1;endArrow=none;endFill=0;" parent="1" source="FLx7aFaUF3Uu00O6tHU3-14" target="FLx7aFaUF3Uu00O6tHU3-44" edge="1">
          <mxGeometry relative="1" as="geometry" />
        </mxCell>
        <mxCell id="FLx7aFaUF3Uu00O6tHU3-14" value="" style="rounded=1;whiteSpace=wrap;html=1;strokeWidth=2;" parent="1" vertex="1">
          <mxGeometry x="370" y="1040" width="220" height="90" as="geometry" />
        </mxCell>
        <mxCell id="FLx7aFaUF3Uu00O6tHU3-15" value="发起" style="rounded=1;whiteSpace=wrap;html=1;strokeWidth=2;" parent="1" vertex="1">
          <mxGeometry x="380" y="1070" width="50" height="20" as="geometry" />
        </mxCell>
        <mxCell id="FLx7aFaUF3Uu00O6tHU3-16" value="响应" style="rounded=1;whiteSpace=wrap;html=1;strokeWidth=2;" parent="1" vertex="1">
          <mxGeometry x="450" y="1070" width="50" height="20" as="geometry" />
        </mxCell>
        <mxCell id="FLx7aFaUF3Uu00O6tHU3-17" value="申诉" style="rounded=1;whiteSpace=wrap;html=1;strokeWidth=2;" parent="1" vertex="1">
          <mxGeometry x="380" y="1100" width="50" height="20" as="geometry" />
        </mxCell>
        <mxCell id="FLx7aFaUF3Uu00O6tHU3-18" value="认责" style="rounded=1;whiteSpace=wrap;html=1;strokeWidth=2;" parent="1" vertex="1">
          <mxGeometry x="520" y="1070" width="50" height="20" as="geometry" />
        </mxCell>
        <mxCell id="FLx7aFaUF3Uu00O6tHU3-20" value="判责" style="rounded=1;whiteSpace=wrap;html=1;strokeWidth=2;" parent="1" vertex="1">
          <mxGeometry x="450" y="1100" width="50" height="20" as="geometry" />
        </mxCell>
        <mxCell id="FLx7aFaUF3Uu00O6tHU3-21" value="评价" style="rounded=1;whiteSpace=wrap;html=1;strokeWidth=2;arcSize=0;" parent="1" vertex="1">
          <mxGeometry x="520" y="1100" width="50" height="20" as="geometry" />
        </mxCell>
        <mxCell id="FLx7aFaUF3Uu00O6tHU3-31" style="edgeStyle=none;rounded=0;orthogonalLoop=1;jettySize=auto;html=1;entryX=0.971;entryY=0.036;entryDx=0;entryDy=0;entryPerimeter=0;dashed=1;strokeWidth=2;" parent="1" source="FLx7aFaUF3Uu00O6tHU3-22" target="FLx7aFaUF3Uu00O6tHU3-14" edge="1">
          <mxGeometry relative="1" as="geometry" />
        </mxCell>
        <mxCell id="FLx7aFaUF3Uu00O6tHU3-65" style="edgeStyle=none;rounded=0;orthogonalLoop=1;jettySize=auto;html=1;entryX=0;entryY=0.5;entryDx=0;entryDy=0;dashed=1;strokeWidth=2;endArrow=none;endFill=0;" parent="1" source="FLx7aFaUF3Uu00O6tHU3-22" target="FLx7aFaUF3Uu00O6tHU3-50" edge="1">
          <mxGeometry relative="1" as="geometry" />
        </mxCell>
        <mxCell id="FLx7aFaUF3Uu00O6tHU3-22" value="小二" style="shape=umlActor;verticalLabelPosition=bottom;verticalAlign=top;html=1;outlineConnect=0;strokeWidth=2;" parent="1" vertex="1">
          <mxGeometry x="600" y="950" width="30" height="40" as="geometry" />
        </mxCell>
        <mxCell id="FLx7aFaUF3Uu00O6tHU3-30" style="rounded=0;orthogonalLoop=1;jettySize=auto;html=1;entryX=0;entryY=0;entryDx=0;entryDy=0;dashed=1;strokeWidth=2;" parent="1" source="FLx7aFaUF3Uu00O6tHU3-23" target="FLx7aFaUF3Uu00O6tHU3-14" edge="1">
          <mxGeometry relative="1" as="geometry" />
        </mxCell>
        <mxCell id="FLx7aFaUF3Uu00O6tHU3-72" style="edgeStyle=none;rounded=0;orthogonalLoop=1;jettySize=auto;html=1;entryX=1;entryY=0.5;entryDx=0;entryDy=0;dashed=1;strokeWidth=2;endArrow=none;endFill=0;" parent="1" source="FLx7aFaUF3Uu00O6tHU3-23" target="FLx7aFaUF3Uu00O6tHU3-68" edge="1">
          <mxGeometry relative="1" as="geometry" />
        </mxCell>
        <mxCell id="FLx7aFaUF3Uu00O6tHU3-23" value="消费者" style="shape=umlActor;verticalLabelPosition=bottom;verticalAlign=top;html=1;outlineConnect=0;strokeWidth=2;" parent="1" vertex="1">
          <mxGeometry x="320" y="950" width="30" height="40" as="geometry" />
        </mxCell>
        <mxCell id="FLx7aFaUF3Uu00O6tHU3-32" style="edgeStyle=none;rounded=0;orthogonalLoop=1;jettySize=auto;html=1;entryX=0;entryY=1;entryDx=0;entryDy=0;dashed=1;strokeWidth=2;" parent="1" source="FLx7aFaUF3Uu00O6tHU3-24" target="FLx7aFaUF3Uu00O6tHU3-14" edge="1">
          <mxGeometry relative="1" as="geometry" />
        </mxCell>
        <mxCell id="FLx7aFaUF3Uu00O6tHU3-66" style="edgeStyle=none;rounded=0;orthogonalLoop=1;jettySize=auto;html=1;entryX=1;entryY=0.5;entryDx=0;entryDy=0;dashed=1;strokeWidth=2;endArrow=none;endFill=0;" parent="1" source="FLx7aFaUF3Uu00O6tHU3-24" target="FLx7aFaUF3Uu00O6tHU3-55" edge="1">
          <mxGeometry relative="1" as="geometry" />
        </mxCell>
        <mxCell id="FLx7aFaUF3Uu00O6tHU3-24" value="商家" style="shape=umlActor;verticalLabelPosition=bottom;verticalAlign=top;html=1;outlineConnect=0;strokeWidth=2;" parent="1" vertex="1">
          <mxGeometry x="320" y="1160" width="30" height="40" as="geometry" />
        </mxCell>
        <mxCell id="FLx7aFaUF3Uu00O6tHU3-33" style="edgeStyle=none;rounded=0;orthogonalLoop=1;jettySize=auto;html=1;entryX=1;entryY=1;entryDx=0;entryDy=0;dashed=1;strokeWidth=2;" parent="1" source="FLx7aFaUF3Uu00O6tHU3-25" target="FLx7aFaUF3Uu00O6tHU3-14" edge="1">
          <mxGeometry relative="1" as="geometry" />
        </mxCell>
        <mxCell id="FLx7aFaUF3Uu00O6tHU3-64" style="edgeStyle=none;rounded=0;orthogonalLoop=1;jettySize=auto;html=1;entryX=0;entryY=0.5;entryDx=0;entryDy=0;dashed=1;strokeWidth=2;endArrow=none;endFill=0;" parent="1" source="FLx7aFaUF3Uu00O6tHU3-25" target="FLx7aFaUF3Uu00O6tHU3-60" edge="1">
          <mxGeometry relative="1" as="geometry" />
        </mxCell>
        <mxCell id="FLx7aFaUF3Uu00O6tHU3-25" value="服务商" style="shape=umlActor;verticalLabelPosition=bottom;verticalAlign=top;html=1;outlineConnect=0;strokeWidth=2;" parent="1" vertex="1">
          <mxGeometry x="600" y="1160" width="30" height="40" as="geometry" />
        </mxCell>
        <mxCell id="FLx7aFaUF3Uu00O6tHU3-42" style="edgeStyle=none;rounded=0;orthogonalLoop=1;jettySize=auto;html=1;exitX=0.75;exitY=1;exitDx=0;exitDy=0;strokeWidth=2;" parent="1" source="FLx7aFaUF3Uu00O6tHU3-20" target="FLx7aFaUF3Uu00O6tHU3-20" edge="1">
          <mxGeometry relative="1" as="geometry" />
        </mxCell>
        <mxCell id="FLx7aFaUF3Uu00O6tHU3-44" value="" style="rounded=1;whiteSpace=wrap;html=1;strokeWidth=2;" parent="1" vertex="1">
          <mxGeometry x="360" y="1270" width="240" height="90" as="geometry" />
        </mxCell>
        <mxCell id="FLx7aFaUF3Uu00O6tHU3-45" value="差评自动投诉" style="rounded=1;whiteSpace=wrap;html=1;strokeWidth=2;" parent="1" vertex="1">
          <mxGeometry x="370" y="1280" width="100" height="30" as="geometry" />
        </mxCell>
        <mxCell id="FLx7aFaUF3Uu00O6tHU3-46" value="超时自动认责" style="rounded=1;whiteSpace=wrap;html=1;strokeWidth=2;" parent="1" vertex="1">
          <mxGeometry x="370" y="1320" width="100" height="30" as="geometry" />
        </mxCell>
        <mxCell id="FLx7aFaUF3Uu00O6tHU3-47" value="消费者超时自动评价" style="rounded=1;whiteSpace=wrap;html=1;strokeWidth=2;" parent="1" vertex="1">
          <mxGeometry x="490" y="1280" width="100" height="30" as="geometry" />
        </mxCell>
        <mxCell id="FLx7aFaUF3Uu00O6tHU3-48" value="商家超时自动评价" style="rounded=1;whiteSpace=wrap;html=1;strokeWidth=2;arcSize=0;" parent="1" vertex="1">
          <mxGeometry x="490" y="1320" width="100" height="30" as="geometry" />
        </mxCell>
        <mxCell id="FLx7aFaUF3Uu00O6tHU3-50" value="" style="rounded=1;whiteSpace=wrap;html=1;strokeWidth=2;" parent="1" vertex="1">
          <mxGeometry x="690" y="880" width="120" height="130" as="geometry" />
        </mxCell>
        <mxCell id="FLx7aFaUF3Uu00O6tHU3-52" value="投诉单列表" style="rounded=1;whiteSpace=wrap;html=1;strokeWidth=2;" parent="1" vertex="1">
          <mxGeometry x="700" y="890" width="100" height="30" as="geometry" />
        </mxCell>
        <mxCell id="FLx7aFaUF3Uu00O6tHU3-53" value="投诉单管理" style="rounded=1;whiteSpace=wrap;html=1;strokeWidth=2;" parent="1" vertex="1">
          <mxGeometry x="700" y="970" width="100" height="30" as="geometry" />
        </mxCell>
        <mxCell id="FLx7aFaUF3Uu00O6tHU3-54" value="投诉问题配置" style="rounded=1;whiteSpace=wrap;html=1;strokeWidth=2;" parent="1" vertex="1">
          <mxGeometry x="700" y="930" width="100" height="30" as="geometry" />
        </mxCell>
        <mxCell id="FLx7aFaUF3Uu00O6tHU3-55" value="" style="rounded=1;whiteSpace=wrap;html=1;strokeWidth=2;" parent="1" vertex="1">
          <mxGeometry x="140" y="1140" width="120" height="170" as="geometry" />
        </mxCell>
        <mxCell id="FLx7aFaUF3Uu00O6tHU3-56" value="工单列表关联投诉" style="rounded=1;whiteSpace=wrap;html=1;strokeWidth=2;" parent="1" vertex="1">
          <mxGeometry x="150" y="1150" width="100" height="30" as="geometry" />
        </mxCell>
        <mxCell id="FLx7aFaUF3Uu00O6tHU3-57" value="投诉单列表" style="rounded=1;whiteSpace=wrap;html=1;strokeWidth=2;" parent="1" vertex="1">
          <mxGeometry x="150" y="1190" width="100" height="30" as="geometry" />
        </mxCell>
        <mxCell id="FLx7aFaUF3Uu00O6tHU3-58" value="投诉入口" style="rounded=1;whiteSpace=wrap;html=1;strokeWidth=2;" parent="1" vertex="1">
          <mxGeometry x="150" y="1230" width="100" height="30" as="geometry" />
        </mxCell>
        <mxCell id="FLx7aFaUF3Uu00O6tHU3-60" value="" style="rounded=1;whiteSpace=wrap;html=1;strokeWidth=2;" parent="1" vertex="1">
          <mxGeometry x="690" y="1140" width="120" height="130" as="geometry" />
        </mxCell>
        <mxCell id="FLx7aFaUF3Uu00O6tHU3-61" value="top 消息" style="rounded=1;whiteSpace=wrap;html=1;strokeWidth=2;" parent="1" vertex="1">
          <mxGeometry x="700" y="1150" width="100" height="30" as="geometry" />
        </mxCell>
        <mxCell id="FLx7aFaUF3Uu00O6tHU3-62" value="top 接口" style="rounded=1;whiteSpace=wrap;html=1;strokeWidth=2;" parent="1" vertex="1">
          <mxGeometry x="700" y="1190" width="100" height="30" as="geometry" />
        </mxCell>
        <mxCell id="FLx7aFaUF3Uu00O6tHU3-63" value="ascp 工作台" style="rounded=1;whiteSpace=wrap;html=1;strokeWidth=2;" parent="1" vertex="1">
          <mxGeometry x="700" y="1230" width="100" height="30" as="geometry" />
        </mxCell>
        <mxCell id="FLx7aFaUF3Uu00O6tHU3-68" value="" style="rounded=1;whiteSpace=wrap;html=1;strokeWidth=2;" parent="1" vertex="1">
          <mxGeometry x="140" y="880" width="120" height="130" as="geometry" />
        </mxCell>
        <mxCell id="FLx7aFaUF3Uu00O6tHU3-69" value="服务详情投诉" style="rounded=1;whiteSpace=wrap;html=1;strokeWidth=2;" parent="1" vertex="1">
          <mxGeometry x="150" y="890" width="100" height="30" as="geometry" />
        </mxCell>
        <mxCell id="FLx7aFaUF3Uu00O6tHU3-70" value="投诉进度" style="rounded=1;whiteSpace=wrap;html=1;strokeWidth=2;" parent="1" vertex="1">
          <mxGeometry x="150" y="930" width="100" height="30" as="geometry" />
        </mxCell>
        <mxCell id="FLx7aFaUF3Uu00O6tHU3-71" value="投诉评价" style="rounded=1;whiteSpace=wrap;html=1;strokeWidth=2;" parent="1" vertex="1">
          <mxGeometry x="150" y="970" width="100" height="30" as="geometry" />
        </mxCell>
        <mxCell id="FLx7aFaUF3Uu00O6tHU3-73" value="千牛客服插件" style="rounded=1;whiteSpace=wrap;html=1;strokeWidth=2;" parent="1" vertex="1">
          <mxGeometry x="150" y="1270" width="100" height="30" as="geometry" />
        </mxCell>
        <mxCell id="FLx7aFaUF3Uu00O6tHU3-82" value="投诉赔付核心" style="text;html=1;strokeColor=none;fillColor=none;align=center;verticalAlign=middle;whiteSpace=wrap;rounded=0;" parent="1" vertex="1">
          <mxGeometry x="432.5" y="1040" width="85" height="30" as="geometry" />
        </mxCell>
        <mxCell id="FLx7aFaUF3Uu00O6tHU3-109" value="系统依赖图" style="swimlane;whiteSpace=wrap;html=1;strokeColor=#82b366;strokeWidth=2;fillColor=#d5e8d4;" parent="1" vertex="1">
          <mxGeometry x="140" y="2290" width="550" height="290" as="geometry" />
        </mxCell>
        <mxCell id="FLx7aFaUF3Uu00O6tHU3-86" value="ssc-homedecoration" style="rounded=1;whiteSpace=wrap;html=1;strokeWidth=2;fillColor=#dae8fc;strokeColor=#6c8ebf;" parent="FLx7aFaUF3Uu00O6tHU3-109" vertex="1">
          <mxGeometry x="220" y="50" width="100" height="40" as="geometry" />
        </mxCell>
        <mxCell id="FLx7aFaUF3Uu00O6tHU3-88" value="service-control-center(兼容)" style="rounded=1;whiteSpace=wrap;html=1;strokeWidth=2;fillColor=#dae8fc;strokeColor=#6c8ebf;" parent="FLx7aFaUF3Uu00O6tHU3-109" vertex="1">
          <mxGeometry x="220" y="140" width="100" height="40" as="geometry" />
        </mxCell>
        <mxCell id="FLx7aFaUF3Uu00O6tHU3-85" style="edgeStyle=orthogonalEdgeStyle;rounded=0;orthogonalLoop=1;jettySize=auto;html=1;entryX=0.5;entryY=0;entryDx=0;entryDy=0;strokeWidth=2;fillColor=#dae8fc;strokeColor=#000000;" parent="FLx7aFaUF3Uu00O6tHU3-109" source="FLx7aFaUF3Uu00O6tHU3-86" target="FLx7aFaUF3Uu00O6tHU3-88" edge="1">
          <mxGeometry relative="1" as="geometry" />
        </mxCell>
        <mxCell id="FLx7aFaUF3Uu00O6tHU3-89" value="存储系统" style="rounded=1;whiteSpace=wrap;html=1;strokeWidth=2;fillColor=#dae8fc;strokeColor=#6c8ebf;" parent="FLx7aFaUF3Uu00O6tHU3-109" vertex="1">
          <mxGeometry x="220" y="230" width="100" height="40" as="geometry" />
        </mxCell>
        <mxCell id="FLx7aFaUF3Uu00O6tHU3-87" style="edgeStyle=orthogonalEdgeStyle;rounded=0;orthogonalLoop=1;jettySize=auto;html=1;entryX=0.5;entryY=0;entryDx=0;entryDy=0;strokeWidth=2;fillColor=#dae8fc;strokeColor=#000000;" parent="FLx7aFaUF3Uu00O6tHU3-109" source="FLx7aFaUF3Uu00O6tHU3-88" target="FLx7aFaUF3Uu00O6tHU3-89" edge="1">
          <mxGeometry relative="1" as="geometry" />
        </mxCell>
        <mxCell id="FLx7aFaUF3Uu00O6tHU3-91" style="edgeStyle=none;rounded=0;orthogonalLoop=1;jettySize=auto;html=1;entryX=1;entryY=0.5;entryDx=0;entryDy=0;strokeWidth=2;endArrow=classic;endFill=1;" parent="FLx7aFaUF3Uu00O6tHU3-109" source="FLx7aFaUF3Uu00O6tHU3-90" target="FLx7aFaUF3Uu00O6tHU3-88" edge="1">
          <mxGeometry relative="1" as="geometry" />
        </mxCell>
        <mxCell id="FLx7aFaUF3Uu00O6tHU3-93" value="top" style="edgeLabel;html=1;align=center;verticalAlign=middle;resizable=0;points=[];" parent="FLx7aFaUF3Uu00O6tHU3-91" vertex="1" connectable="0">
          <mxGeometry x="-0.0662" relative="1" as="geometry">
            <mxPoint as="offset" />
          </mxGeometry>
        </mxCell>
        <mxCell id="FLx7aFaUF3Uu00O6tHU3-90" value="外部服务商" style="rounded=1;whiteSpace=wrap;html=1;strokeWidth=2;fillColor=#f5f5f5;strokeColor=#666666;fontColor=#333333;" parent="FLx7aFaUF3Uu00O6tHU3-109" vertex="1">
          <mxGeometry x="420" y="140" width="100" height="40" as="geometry" />
        </mxCell>
        <mxCell id="FLx7aFaUF3Uu00O6tHU3-94" style="edgeStyle=none;rounded=0;orthogonalLoop=1;jettySize=auto;html=1;entryX=0;entryY=0.5;entryDx=0;entryDy=0;strokeWidth=2;endArrow=classic;endFill=1;" parent="FLx7aFaUF3Uu00O6tHU3-109" source="FLx7aFaUF3Uu00O6tHU3-92" target="FLx7aFaUF3Uu00O6tHU3-88" edge="1">
          <mxGeometry relative="1" as="geometry" />
        </mxCell>
        <mxCell id="FLx7aFaUF3Uu00O6tHU3-95" value="hsf" style="edgeLabel;html=1;align=center;verticalAlign=middle;resizable=0;points=[];" parent="FLx7aFaUF3Uu00O6tHU3-94" vertex="1" connectable="0">
          <mxGeometry x="-0.2569" relative="1" as="geometry">
            <mxPoint x="7" as="offset" />
          </mxGeometry>
        </mxCell>
        <mxCell id="FLx7aFaUF3Uu00O6tHU3-92" value="蚁巢" style="rounded=1;whiteSpace=wrap;html=1;strokeWidth=2;fillColor=#ffe6cc;strokeColor=#d79b00;" parent="FLx7aFaUF3Uu00O6tHU3-109" vertex="1">
          <mxGeometry x="20" y="140" width="100" height="40" as="geometry" />
        </mxCell>
        <mxCell id="FLx7aFaUF3Uu00O6tHU3-110" value="系统依赖图" style="swimlane;whiteSpace=wrap;html=1;strokeWidth=2;strokeColor=#000000;fillColor=default;" parent="1" vertex="1">
          <mxGeometry x="130" y="1730" width="540" height="370" as="geometry" />
        </mxCell>
        <mxCell id="FLx7aFaUF3Uu00O6tHU3-115" style="edgeStyle=none;rounded=0;orthogonalLoop=1;jettySize=auto;html=1;entryX=0.5;entryY=0;entryDx=0;entryDy=0;strokeWidth=2;endArrow=classic;endFill=1;" parent="FLx7aFaUF3Uu00O6tHU3-110" source="FLx7aFaUF3Uu00O6tHU3-97" target="FLx7aFaUF3Uu00O6tHU3-99" edge="1">
          <mxGeometry relative="1" as="geometry" />
        </mxCell>
        <mxCell id="FLx7aFaUF3Uu00O6tHU3-97" value="ascp-ssc-workbench" style="rounded=1;whiteSpace=wrap;html=1;strokeWidth=2;" parent="FLx7aFaUF3Uu00O6tHU3-110" vertex="1">
          <mxGeometry x="330" y="40" width="100" height="40" as="geometry" />
        </mxCell>
        <mxCell id="FLx7aFaUF3Uu00O6tHU3-99" value="ssc-homedecoration" style="rounded=1;whiteSpace=wrap;html=1;strokeWidth=2;" parent="FLx7aFaUF3Uu00O6tHU3-110" vertex="1">
          <mxGeometry x="220" y="130" width="100" height="40" as="geometry" />
        </mxCell>
        <mxCell id="FLx7aFaUF3Uu00O6tHU3-101" value="service-control-center" style="rounded=1;whiteSpace=wrap;html=1;strokeWidth=2;" parent="FLx7aFaUF3Uu00O6tHU3-110" vertex="1">
          <mxGeometry x="220" y="220" width="100" height="40" as="geometry" />
        </mxCell>
        <mxCell id="FLx7aFaUF3Uu00O6tHU3-98" style="edgeStyle=orthogonalEdgeStyle;rounded=0;orthogonalLoop=1;jettySize=auto;html=1;entryX=0.5;entryY=0;entryDx=0;entryDy=0;strokeWidth=2;" parent="FLx7aFaUF3Uu00O6tHU3-110" source="FLx7aFaUF3Uu00O6tHU3-99" target="FLx7aFaUF3Uu00O6tHU3-101" edge="1">
          <mxGeometry relative="1" as="geometry" />
        </mxCell>
        <mxCell id="FLx7aFaUF3Uu00O6tHU3-102" value="存储系统" style="rounded=1;whiteSpace=wrap;html=1;strokeWidth=2;" parent="FLx7aFaUF3Uu00O6tHU3-110" vertex="1">
          <mxGeometry x="220" y="310" width="100" height="40" as="geometry" />
        </mxCell>
        <mxCell id="FLx7aFaUF3Uu00O6tHU3-100" style="edgeStyle=orthogonalEdgeStyle;rounded=0;orthogonalLoop=1;jettySize=auto;html=1;entryX=0.5;entryY=0;entryDx=0;entryDy=0;strokeWidth=2;" parent="FLx7aFaUF3Uu00O6tHU3-110" source="FLx7aFaUF3Uu00O6tHU3-101" target="FLx7aFaUF3Uu00O6tHU3-102" edge="1">
          <mxGeometry relative="1" as="geometry" />
        </mxCell>
        <mxCell id="FLx7aFaUF3Uu00O6tHU3-103" style="edgeStyle=none;rounded=0;orthogonalLoop=1;jettySize=auto;html=1;entryX=1;entryY=0.5;entryDx=0;entryDy=0;strokeWidth=2;endArrow=classic;endFill=1;" parent="FLx7aFaUF3Uu00O6tHU3-110" source="FLx7aFaUF3Uu00O6tHU3-105" target="FLx7aFaUF3Uu00O6tHU3-101" edge="1">
          <mxGeometry relative="1" as="geometry" />
        </mxCell>
        <mxCell id="FLx7aFaUF3Uu00O6tHU3-104" value="top" style="edgeLabel;html=1;align=center;verticalAlign=middle;resizable=0;points=[];" parent="FLx7aFaUF3Uu00O6tHU3-103" vertex="1" connectable="0">
          <mxGeometry x="-0.0662" relative="1" as="geometry">
            <mxPoint as="offset" />
          </mxGeometry>
        </mxCell>
        <mxCell id="FLx7aFaUF3Uu00O6tHU3-105" value="外部服务商" style="rounded=1;whiteSpace=wrap;html=1;strokeWidth=2;fillColor=default;strokeColor=#141CFF;" parent="FLx7aFaUF3Uu00O6tHU3-110" vertex="1">
          <mxGeometry x="420" y="220" width="100" height="40" as="geometry" />
        </mxCell>
        <mxCell id="FLx7aFaUF3Uu00O6tHU3-116" style="edgeStyle=orthogonalEdgeStyle;rounded=0;orthogonalLoop=1;jettySize=auto;html=1;entryX=0;entryY=0.5;entryDx=0;entryDy=0;strokeWidth=2;endArrow=classic;endFill=1;" parent="FLx7aFaUF3Uu00O6tHU3-110" source="FLx7aFaUF3Uu00O6tHU3-108" target="FLx7aFaUF3Uu00O6tHU3-102" edge="1">
          <mxGeometry relative="1" as="geometry">
            <Array as="points">
              <mxPoint x="70" y="330" />
            </Array>
          </mxGeometry>
        </mxCell>
        <mxCell id="FLx7aFaUF3Uu00O6tHU3-108" value="蚁巢" style="rounded=1;whiteSpace=wrap;html=1;strokeWidth=2;fillColor=default;strokeColor=#141CFF;" parent="FLx7aFaUF3Uu00O6tHU3-110" vertex="1">
          <mxGeometry x="20" y="220" width="100" height="40" as="geometry" />
        </mxCell>
        <mxCell id="FLx7aFaUF3Uu00O6tHU3-114" style="edgeStyle=none;rounded=0;orthogonalLoop=1;jettySize=auto;html=1;entryX=0.5;entryY=0;entryDx=0;entryDy=0;strokeWidth=2;endArrow=classic;endFill=1;" parent="FLx7aFaUF3Uu00O6tHU3-110" source="FLx7aFaUF3Uu00O6tHU3-112" target="FLx7aFaUF3Uu00O6tHU3-99" edge="1">
          <mxGeometry relative="1" as="geometry" />
        </mxCell>
        <mxCell id="FLx7aFaUF3Uu00O6tHU3-112" value="fuwufront" style="rounded=1;whiteSpace=wrap;html=1;strokeWidth=2;" parent="FLx7aFaUF3Uu00O6tHU3-110" vertex="1">
          <mxGeometry x="130" y="40" width="100" height="40" as="geometry" />
        </mxCell>
        <mxCell id="_OzPDyUF81ez5zTqAgLw-1" value="系统依赖图" style="swimlane;whiteSpace=wrap;html=1;strokeWidth=2;strokeColor=#82b366;fillColor=#d5e8d4;" vertex="1" parent="1">
          <mxGeometry x="850" y="1790" width="550" height="370" as="geometry" />
        </mxCell>
        <mxCell id="_OzPDyUF81ez5zTqAgLw-2" style="edgeStyle=none;rounded=0;orthogonalLoop=1;jettySize=auto;html=1;entryX=0.5;entryY=0;entryDx=0;entryDy=0;strokeWidth=2;endArrow=classic;endFill=1;" edge="1" parent="_OzPDyUF81ez5zTqAgLw-1" source="_OzPDyUF81ez5zTqAgLw-3" target="_OzPDyUF81ez5zTqAgLw-4">
          <mxGeometry relative="1" as="geometry" />
        </mxCell>
        <mxCell id="_OzPDyUF81ez5zTqAgLw-3" value="ascp-ssc-workbench" style="rounded=1;whiteSpace=wrap;html=1;strokeWidth=2;fillColor=#dae8fc;strokeColor=#6c8ebf;" vertex="1" parent="_OzPDyUF81ez5zTqAgLw-1">
          <mxGeometry x="220" y="40" width="100" height="40" as="geometry" />
        </mxCell>
        <mxCell id="_OzPDyUF81ez5zTqAgLw-4" value="ssc-homedecoration" style="rounded=1;whiteSpace=wrap;html=1;strokeWidth=2;fillColor=#dae8fc;strokeColor=#6c8ebf;" vertex="1" parent="_OzPDyUF81ez5zTqAgLw-1">
          <mxGeometry x="220" y="130" width="100" height="40" as="geometry" />
        </mxCell>
        <mxCell id="_OzPDyUF81ez5zTqAgLw-42" style="edgeStyle=none;shape=connector;rounded=0;orthogonalLoop=1;jettySize=auto;html=1;entryX=0;entryY=0.5;entryDx=0;entryDy=0;strokeColor=default;strokeWidth=2;align=center;verticalAlign=middle;fontFamily=Helvetica;fontSize=11;fontColor=default;labelBackgroundColor=default;endArrow=classic;" edge="1" parent="_OzPDyUF81ez5zTqAgLw-1" source="_OzPDyUF81ez5zTqAgLw-5" target="_OzPDyUF81ez5zTqAgLw-37">
          <mxGeometry relative="1" as="geometry" />
        </mxCell>
        <mxCell id="_OzPDyUF81ez5zTqAgLw-5" value="service-control-center" style="rounded=1;whiteSpace=wrap;html=1;strokeWidth=2;fillColor=#f8cecc;strokeColor=#b85450;" vertex="1" parent="_OzPDyUF81ez5zTqAgLw-1">
          <mxGeometry x="220" y="220" width="100" height="40" as="geometry" />
        </mxCell>
        <mxCell id="_OzPDyUF81ez5zTqAgLw-6" style="edgeStyle=orthogonalEdgeStyle;rounded=0;orthogonalLoop=1;jettySize=auto;html=1;entryX=0.5;entryY=0;entryDx=0;entryDy=0;strokeWidth=2;" edge="1" parent="_OzPDyUF81ez5zTqAgLw-1" source="_OzPDyUF81ez5zTqAgLw-4" target="_OzPDyUF81ez5zTqAgLw-5">
          <mxGeometry relative="1" as="geometry" />
        </mxCell>
        <mxCell id="_OzPDyUF81ez5zTqAgLw-7" value="存储系统" style="rounded=1;whiteSpace=wrap;html=1;strokeWidth=2;fillColor=#e1d5e7;strokeColor=#9673a6;" vertex="1" parent="_OzPDyUF81ez5zTqAgLw-1">
          <mxGeometry x="220" y="310" width="100" height="40" as="geometry" />
        </mxCell>
        <mxCell id="_OzPDyUF81ez5zTqAgLw-8" style="edgeStyle=orthogonalEdgeStyle;rounded=0;orthogonalLoop=1;jettySize=auto;html=1;entryX=0.5;entryY=0;entryDx=0;entryDy=0;strokeWidth=2;" edge="1" parent="_OzPDyUF81ez5zTqAgLw-1" source="_OzPDyUF81ez5zTqAgLw-5" target="_OzPDyUF81ez5zTqAgLw-7">
          <mxGeometry relative="1" as="geometry" />
        </mxCell>
        <mxCell id="_OzPDyUF81ez5zTqAgLw-9" style="edgeStyle=none;rounded=0;orthogonalLoop=1;jettySize=auto;html=1;entryX=1;entryY=0.5;entryDx=0;entryDy=0;strokeWidth=2;endArrow=classic;endFill=1;" edge="1" parent="_OzPDyUF81ez5zTqAgLw-1" source="_OzPDyUF81ez5zTqAgLw-11" target="_OzPDyUF81ez5zTqAgLw-5">
          <mxGeometry relative="1" as="geometry" />
        </mxCell>
        <mxCell id="_OzPDyUF81ez5zTqAgLw-10" value="top" style="edgeLabel;html=1;align=center;verticalAlign=middle;resizable=0;points=[];" vertex="1" connectable="0" parent="_OzPDyUF81ez5zTqAgLw-9">
          <mxGeometry x="-0.0662" relative="1" as="geometry">
            <mxPoint as="offset" />
          </mxGeometry>
        </mxCell>
        <mxCell id="_OzPDyUF81ez5zTqAgLw-11" value="外部服务商" style="rounded=1;whiteSpace=wrap;html=1;strokeWidth=2;fillColor=#f5f5f5;strokeColor=#666666;fontColor=#333333;" vertex="1" parent="_OzPDyUF81ez5zTqAgLw-1">
          <mxGeometry x="420" y="280" width="100" height="40" as="geometry" />
        </mxCell>
        <mxCell id="_OzPDyUF81ez5zTqAgLw-12" style="edgeStyle=orthogonalEdgeStyle;rounded=0;orthogonalLoop=1;jettySize=auto;html=1;entryX=0;entryY=0.5;entryDx=0;entryDy=0;strokeWidth=2;endArrow=classic;endFill=1;" edge="1" parent="_OzPDyUF81ez5zTqAgLw-1" source="_OzPDyUF81ez5zTqAgLw-13" target="_OzPDyUF81ez5zTqAgLw-7">
          <mxGeometry relative="1" as="geometry">
            <Array as="points">
              <mxPoint x="70" y="330" />
            </Array>
          </mxGeometry>
        </mxCell>
        <mxCell id="_OzPDyUF81ez5zTqAgLw-39" style="edgeStyle=none;shape=connector;rounded=0;orthogonalLoop=1;jettySize=auto;html=1;entryX=0;entryY=0.5;entryDx=0;entryDy=0;strokeColor=default;strokeWidth=2;align=center;verticalAlign=middle;fontFamily=Helvetica;fontSize=11;fontColor=default;labelBackgroundColor=default;endArrow=classic;" edge="1" parent="_OzPDyUF81ez5zTqAgLw-1" source="_OzPDyUF81ez5zTqAgLw-13" target="_OzPDyUF81ez5zTqAgLw-5">
          <mxGeometry relative="1" as="geometry" />
        </mxCell>
        <mxCell id="_OzPDyUF81ez5zTqAgLw-13" value="蚁巢业务" style="rounded=1;whiteSpace=wrap;html=1;strokeWidth=2;fillColor=#ffe6cc;strokeColor=#d79b00;" vertex="1" parent="_OzPDyUF81ez5zTqAgLw-1">
          <mxGeometry x="20" y="220" width="100" height="40" as="geometry" />
        </mxCell>
        <mxCell id="_OzPDyUF81ez5zTqAgLw-14" style="edgeStyle=none;rounded=0;orthogonalLoop=1;jettySize=auto;html=1;entryX=0.5;entryY=0;entryDx=0;entryDy=0;strokeWidth=2;endArrow=classic;endFill=1;" edge="1" parent="_OzPDyUF81ez5zTqAgLw-1" source="_OzPDyUF81ez5zTqAgLw-15" target="_OzPDyUF81ez5zTqAgLw-4">
          <mxGeometry relative="1" as="geometry" />
        </mxCell>
        <mxCell id="_OzPDyUF81ez5zTqAgLw-15" value="fuwufront" style="rounded=1;whiteSpace=wrap;html=1;strokeWidth=2;fillColor=#dae8fc;strokeColor=#6c8ebf;" vertex="1" parent="_OzPDyUF81ez5zTqAgLw-1">
          <mxGeometry x="100" y="40" width="100" height="40" as="geometry" />
        </mxCell>
        <mxCell id="_OzPDyUF81ez5zTqAgLw-37" value="servicecenter" style="rounded=1;whiteSpace=wrap;html=1;strokeWidth=2;fillColor=#dae8fc;strokeColor=#6c8ebf;" vertex="1" parent="_OzPDyUF81ez5zTqAgLw-1">
          <mxGeometry x="420" y="220" width="100" height="40" as="geometry" />
        </mxCell>
        <mxCell id="_OzPDyUF81ez5zTqAgLw-47" style="edgeStyle=none;shape=connector;rounded=0;orthogonalLoop=1;jettySize=auto;html=1;entryX=0.5;entryY=0;entryDx=0;entryDy=0;strokeColor=default;strokeWidth=2;align=center;verticalAlign=middle;fontFamily=Helvetica;fontSize=11;fontColor=default;labelBackgroundColor=default;endArrow=classic;" edge="1" parent="_OzPDyUF81ez5zTqAgLw-1" source="_OzPDyUF81ez5zTqAgLw-43" target="_OzPDyUF81ez5zTqAgLw-5">
          <mxGeometry relative="1" as="geometry" />
        </mxCell>
        <mxCell id="_OzPDyUF81ez5zTqAgLw-43" value="ssc-electric-service" style="rounded=1;whiteSpace=wrap;html=1;strokeWidth=2;fillColor=#dae8fc;strokeColor=#6c8ebf;" vertex="1" parent="_OzPDyUF81ez5zTqAgLw-1">
          <mxGeometry x="420" y="130" width="100" height="40" as="geometry" />
        </mxCell>
        <mxCell id="_OzPDyUF81ez5zTqAgLw-46" style="edgeStyle=none;shape=connector;rounded=0;orthogonalLoop=1;jettySize=auto;html=1;entryX=0.5;entryY=0;entryDx=0;entryDy=0;strokeColor=default;strokeWidth=2;align=center;verticalAlign=middle;fontFamily=Helvetica;fontSize=11;fontColor=default;labelBackgroundColor=default;endArrow=classic;" edge="1" parent="_OzPDyUF81ez5zTqAgLw-1" source="_OzPDyUF81ez5zTqAgLw-44" target="_OzPDyUF81ez5zTqAgLw-43">
          <mxGeometry relative="1" as="geometry" />
        </mxCell>
        <mxCell id="_OzPDyUF81ez5zTqAgLw-44" value="ssc-electric-workbench" style="rounded=1;whiteSpace=wrap;html=1;strokeWidth=2;fillColor=#dae8fc;strokeColor=#6c8ebf;" vertex="1" parent="_OzPDyUF81ez5zTqAgLw-1">
          <mxGeometry x="420" y="40" width="100" height="40" as="geometry" />
        </mxCell>
        <mxCell id="_OzPDyUF81ez5zTqAgLw-21" style="rounded=0;orthogonalLoop=1;jettySize=auto;html=1;entryX=0.5;entryY=0;entryDx=0;entryDy=0;strokeWidth=2;" edge="1" parent="1" source="_OzPDyUF81ez5zTqAgLw-16" target="_OzPDyUF81ez5zTqAgLw-20">
          <mxGeometry relative="1" as="geometry" />
        </mxCell>
        <mxCell id="_OzPDyUF81ez5zTqAgLw-16" value="fuwufront&lt;div&gt;CCO代消费者&lt;/div&gt;" style="rounded=1;whiteSpace=wrap;html=1;strokeWidth=2;fillColor=#dae8fc;strokeColor=#6c8ebf;" vertex="1" parent="1">
          <mxGeometry x="1170" y="1280" width="100" height="40" as="geometry" />
        </mxCell>
        <mxCell id="_OzPDyUF81ez5zTqAgLw-22" style="edgeStyle=none;shape=connector;rounded=0;orthogonalLoop=1;jettySize=auto;html=1;entryX=0.5;entryY=0;entryDx=0;entryDy=0;strokeColor=default;strokeWidth=2;align=center;verticalAlign=middle;fontFamily=Helvetica;fontSize=11;fontColor=default;labelBackgroundColor=default;endArrow=classic;" edge="1" parent="1" source="_OzPDyUF81ez5zTqAgLw-17" target="_OzPDyUF81ez5zTqAgLw-20">
          <mxGeometry relative="1" as="geometry" />
        </mxCell>
        <mxCell id="_OzPDyUF81ez5zTqAgLw-17" value="ascp-ssc-workbench&lt;div&gt;小二&lt;/div&gt;" style="rounded=1;whiteSpace=wrap;html=1;strokeWidth=2;fillColor=#dae8fc;strokeColor=#6c8ebf;" vertex="1" parent="1">
          <mxGeometry x="1260" y="1225" width="100" height="40" as="geometry" />
        </mxCell>
        <mxCell id="_OzPDyUF81ez5zTqAgLw-23" style="edgeStyle=none;shape=connector;rounded=0;orthogonalLoop=1;jettySize=auto;html=1;entryX=0.5;entryY=0;entryDx=0;entryDy=0;strokeColor=default;strokeWidth=2;align=center;verticalAlign=middle;fontFamily=Helvetica;fontSize=11;fontColor=default;labelBackgroundColor=default;endArrow=classic;" edge="1" parent="1" source="_OzPDyUF81ez5zTqAgLw-18" target="_OzPDyUF81ez5zTqAgLw-20">
          <mxGeometry relative="1" as="geometry" />
        </mxCell>
        <mxCell id="_OzPDyUF81ez5zTqAgLw-18" value="ssc-homedecoration&lt;div&gt;系统发起&lt;/div&gt;" style="rounded=1;whiteSpace=wrap;html=1;strokeWidth=2;fillColor=#dae8fc;strokeColor=#6c8ebf;" vertex="1" parent="1">
          <mxGeometry x="1330" y="1290" width="120" height="40" as="geometry" />
        </mxCell>
        <mxCell id="_OzPDyUF81ez5zTqAgLw-19" value="servicecenter&lt;div&gt;一键求助&lt;/div&gt;" style="rounded=1;whiteSpace=wrap;html=1;strokeWidth=2;fillColor=#dae8fc;strokeColor=#6c8ebf;" vertex="1" parent="1">
          <mxGeometry x="1660" y="1350" width="100" height="40" as="geometry" />
        </mxCell>
        <mxCell id="_OzPDyUF81ez5zTqAgLw-20" value="service-control-center&lt;div&gt;DB作用&lt;/div&gt;" style="rounded=1;whiteSpace=wrap;html=1;strokeWidth=2;fillColor=#f8cecc;strokeColor=#b85450;" vertex="1" parent="1">
          <mxGeometry x="1240" y="1470" width="100" height="40" as="geometry" />
        </mxCell>
        <mxCell id="_OzPDyUF81ez5zTqAgLw-24" style="edgeStyle=none;shape=connector;rounded=0;orthogonalLoop=1;jettySize=auto;html=1;entryX=0.442;entryY=0.003;entryDx=0;entryDy=0;entryPerimeter=0;strokeColor=default;strokeWidth=2;align=center;verticalAlign=middle;fontFamily=Helvetica;fontSize=11;fontColor=default;labelBackgroundColor=default;endArrow=classic;" edge="1" parent="1" source="_OzPDyUF81ez5zTqAgLw-19" target="_OzPDyUF81ez5zTqAgLw-20">
          <mxGeometry relative="1" as="geometry" />
        </mxCell>
        <mxCell id="_OzPDyUF81ez5zTqAgLw-29" style="edgeStyle=none;shape=connector;rounded=0;orthogonalLoop=1;jettySize=auto;html=1;entryX=0.5;entryY=0;entryDx=0;entryDy=0;strokeColor=default;strokeWidth=2;align=center;verticalAlign=middle;fontFamily=Helvetica;fontSize=11;fontColor=default;labelBackgroundColor=default;endArrow=classic;" edge="1" parent="1" source="_OzPDyUF81ez5zTqAgLw-27" target="_OzPDyUF81ez5zTqAgLw-20">
          <mxGeometry relative="1" as="geometry" />
        </mxCell>
        <mxCell id="_OzPDyUF81ez5zTqAgLw-27" value="ssc-homedecoration&lt;div&gt;千牛工作台发起&lt;/div&gt;" style="rounded=1;whiteSpace=wrap;html=1;strokeWidth=2;fillColor=#dae8fc;strokeColor=#6c8ebf;" vertex="1" parent="1">
          <mxGeometry x="1500" y="1235" width="120" height="40" as="geometry" />
        </mxCell>
        <mxCell id="_OzPDyUF81ez5zTqAgLw-30" style="edgeStyle=none;shape=connector;rounded=0;orthogonalLoop=1;jettySize=auto;html=1;entryX=0.5;entryY=0;entryDx=0;entryDy=0;strokeColor=default;strokeWidth=2;align=center;verticalAlign=middle;fontFamily=Helvetica;fontSize=11;fontColor=default;labelBackgroundColor=default;endArrow=classic;" edge="1" parent="1" source="_OzPDyUF81ez5zTqAgLw-28" target="_OzPDyUF81ez5zTqAgLw-20">
          <mxGeometry relative="1" as="geometry" />
        </mxCell>
        <mxCell id="_OzPDyUF81ez5zTqAgLw-28" value="ssc-homedecoration&lt;div&gt;XP小二发起&lt;/div&gt;" style="rounded=1;whiteSpace=wrap;html=1;strokeWidth=2;fillColor=#dae8fc;strokeColor=#6c8ebf;" vertex="1" parent="1">
          <mxGeometry x="1490" y="1330" width="120" height="40" as="geometry" />
        </mxCell>
        <mxCell id="_OzPDyUF81ez5zTqAgLw-33" style="edgeStyle=none;shape=connector;rounded=0;orthogonalLoop=1;jettySize=auto;html=1;entryX=0.5;entryY=0;entryDx=0;entryDy=0;strokeColor=default;strokeWidth=2;align=center;verticalAlign=middle;fontFamily=Helvetica;fontSize=11;fontColor=default;labelBackgroundColor=default;endArrow=classic;" edge="1" parent="1" source="_OzPDyUF81ez5zTqAgLw-31" target="_OzPDyUF81ez5zTqAgLw-20">
          <mxGeometry relative="1" as="geometry" />
        </mxCell>
        <mxCell id="_OzPDyUF81ez5zTqAgLw-31" value="fuwufront&lt;div&gt;消费者&lt;/div&gt;" style="rounded=1;whiteSpace=wrap;html=1;strokeWidth=2;fillColor=#dae8fc;strokeColor=#6c8ebf;" vertex="1" parent="1">
          <mxGeometry x="1020" y="1230" width="100" height="40" as="geometry" />
        </mxCell>
        <mxCell id="_OzPDyUF81ez5zTqAgLw-34" style="edgeStyle=none;shape=connector;rounded=0;orthogonalLoop=1;jettySize=auto;html=1;entryX=0.5;entryY=0;entryDx=0;entryDy=0;strokeColor=default;strokeWidth=2;align=center;verticalAlign=middle;fontFamily=Helvetica;fontSize=11;fontColor=default;labelBackgroundColor=default;endArrow=classic;" edge="1" parent="1" source="_OzPDyUF81ez5zTqAgLw-32" target="_OzPDyUF81ez5zTqAgLw-20">
          <mxGeometry relative="1" as="geometry" />
        </mxCell>
        <mxCell id="_OzPDyUF81ez5zTqAgLw-32" value="fuwufront&lt;div&gt;商家&lt;/div&gt;" style="rounded=1;whiteSpace=wrap;html=1;strokeWidth=2;fillColor=#dae8fc;strokeColor=#6c8ebf;" vertex="1" parent="1">
          <mxGeometry x="990" y="1300" width="100" height="40" as="geometry" />
        </mxCell>
        <mxCell id="_OzPDyUF81ez5zTqAgLw-36" style="edgeStyle=none;shape=connector;rounded=0;orthogonalLoop=1;jettySize=auto;html=1;entryX=0.5;entryY=0;entryDx=0;entryDy=0;strokeColor=default;strokeWidth=2;align=center;verticalAlign=middle;fontFamily=Helvetica;fontSize=11;fontColor=default;labelBackgroundColor=default;endArrow=classic;" edge="1" parent="1" source="_OzPDyUF81ez5zTqAgLw-35" target="_OzPDyUF81ez5zTqAgLw-20">
          <mxGeometry relative="1" as="geometry" />
        </mxCell>
        <mxCell id="_OzPDyUF81ez5zTqAgLw-35" value="fuwufront&lt;div&gt;外呼，短信&lt;/div&gt;" style="rounded=1;whiteSpace=wrap;html=1;strokeWidth=2;fillColor=#dae8fc;strokeColor=#6c8ebf;" vertex="1" parent="1">
          <mxGeometry x="910" y="1350" width="100" height="40" as="geometry" />
        </mxCell>
        <mxCell id="g2LQDgr9Wa3P3ohkHAGx-46" style="edgeStyle=none;rounded=0;orthogonalLoop=1;jettySize=auto;html=1;entryX=0.5;entryY=0;entryDx=0;entryDy=0;strokeWidth=2;dashed=1;endArrow=none;endFill=0;" edge="1" parent="1" source="g2LQDgr9Wa3P3ohkHAGx-47" target="g2LQDgr9Wa3P3ohkHAGx-67">
          <mxGeometry relative="1" as="geometry" />
        </mxCell>
        <mxCell id="g2LQDgr9Wa3P3ohkHAGx-47" value="" style="rounded=1;whiteSpace=wrap;html=1;strokeWidth=2;" vertex="1" parent="1">
          <mxGeometry x="1420" y="650" width="220" height="90" as="geometry" />
        </mxCell>
        <mxCell id="g2LQDgr9Wa3P3ohkHAGx-48" value="发起" style="rounded=1;whiteSpace=wrap;html=1;strokeWidth=2;fillColor=#f8cecc;strokeColor=#b85450;" vertex="1" parent="1">
          <mxGeometry x="1430" y="680" width="50" height="20" as="geometry" />
        </mxCell>
        <mxCell id="g2LQDgr9Wa3P3ohkHAGx-49" value="响应" style="rounded=1;whiteSpace=wrap;html=1;strokeWidth=2;fillColor=#f8cecc;strokeColor=#b85450;" vertex="1" parent="1">
          <mxGeometry x="1500" y="680" width="50" height="20" as="geometry" />
        </mxCell>
        <mxCell id="g2LQDgr9Wa3P3ohkHAGx-50" value="申诉" style="rounded=1;whiteSpace=wrap;html=1;strokeWidth=2;fillColor=#f8cecc;strokeColor=#b85450;" vertex="1" parent="1">
          <mxGeometry x="1430" y="710" width="50" height="20" as="geometry" />
        </mxCell>
        <mxCell id="g2LQDgr9Wa3P3ohkHAGx-51" value="认责" style="rounded=1;whiteSpace=wrap;html=1;strokeWidth=2;fillColor=#f8cecc;strokeColor=#b85450;" vertex="1" parent="1">
          <mxGeometry x="1570" y="680" width="50" height="20" as="geometry" />
        </mxCell>
        <mxCell id="g2LQDgr9Wa3P3ohkHAGx-52" value="判责" style="rounded=1;whiteSpace=wrap;html=1;strokeWidth=2;fillColor=#f8cecc;strokeColor=#b85450;" vertex="1" parent="1">
          <mxGeometry x="1500" y="710" width="50" height="20" as="geometry" />
        </mxCell>
        <mxCell id="g2LQDgr9Wa3P3ohkHAGx-53" value="评价" style="rounded=1;whiteSpace=wrap;html=1;strokeWidth=2;arcSize=0;fillColor=#f8cecc;strokeColor=#b85450;" vertex="1" parent="1">
          <mxGeometry x="1570" y="710" width="50" height="20" as="geometry" />
        </mxCell>
        <mxCell id="g2LQDgr9Wa3P3ohkHAGx-54" style="edgeStyle=none;rounded=0;orthogonalLoop=1;jettySize=auto;html=1;entryX=0.971;entryY=0.036;entryDx=0;entryDy=0;entryPerimeter=0;dashed=1;strokeWidth=2;" edge="1" parent="1" source="g2LQDgr9Wa3P3ohkHAGx-56" target="g2LQDgr9Wa3P3ohkHAGx-47">
          <mxGeometry relative="1" as="geometry" />
        </mxCell>
        <mxCell id="g2LQDgr9Wa3P3ohkHAGx-55" style="edgeStyle=none;rounded=0;orthogonalLoop=1;jettySize=auto;html=1;entryX=0;entryY=0.5;entryDx=0;entryDy=0;dashed=1;strokeWidth=2;endArrow=none;endFill=0;" edge="1" parent="1" source="g2LQDgr9Wa3P3ohkHAGx-56" target="g2LQDgr9Wa3P3ohkHAGx-72">
          <mxGeometry relative="1" as="geometry" />
        </mxCell>
        <mxCell id="g2LQDgr9Wa3P3ohkHAGx-56" value="小二" style="shape=umlActor;verticalLabelPosition=bottom;verticalAlign=top;html=1;outlineConnect=0;strokeWidth=2;" vertex="1" parent="1">
          <mxGeometry x="1650" y="560" width="30" height="40" as="geometry" />
        </mxCell>
        <mxCell id="g2LQDgr9Wa3P3ohkHAGx-57" style="rounded=0;orthogonalLoop=1;jettySize=auto;html=1;entryX=0;entryY=0;entryDx=0;entryDy=0;dashed=1;strokeWidth=2;" edge="1" parent="1" source="g2LQDgr9Wa3P3ohkHAGx-59" target="g2LQDgr9Wa3P3ohkHAGx-47">
          <mxGeometry relative="1" as="geometry" />
        </mxCell>
        <mxCell id="g2LQDgr9Wa3P3ohkHAGx-58" style="edgeStyle=none;rounded=0;orthogonalLoop=1;jettySize=auto;html=1;entryX=1;entryY=0.5;entryDx=0;entryDy=0;dashed=1;strokeWidth=2;endArrow=none;endFill=0;" edge="1" parent="1" source="g2LQDgr9Wa3P3ohkHAGx-59" target="g2LQDgr9Wa3P3ohkHAGx-84">
          <mxGeometry relative="1" as="geometry" />
        </mxCell>
        <mxCell id="g2LQDgr9Wa3P3ohkHAGx-59" value="消费者" style="shape=umlActor;verticalLabelPosition=bottom;verticalAlign=top;html=1;outlineConnect=0;strokeWidth=2;" vertex="1" parent="1">
          <mxGeometry x="1370" y="560" width="30" height="40" as="geometry" />
        </mxCell>
        <mxCell id="g2LQDgr9Wa3P3ohkHAGx-60" style="edgeStyle=none;rounded=0;orthogonalLoop=1;jettySize=auto;html=1;entryX=0;entryY=1;entryDx=0;entryDy=0;dashed=1;strokeWidth=2;" edge="1" parent="1" source="g2LQDgr9Wa3P3ohkHAGx-62" target="g2LQDgr9Wa3P3ohkHAGx-47">
          <mxGeometry relative="1" as="geometry" />
        </mxCell>
        <mxCell id="g2LQDgr9Wa3P3ohkHAGx-61" style="edgeStyle=none;rounded=0;orthogonalLoop=1;jettySize=auto;html=1;entryX=1;entryY=0.5;entryDx=0;entryDy=0;dashed=1;strokeWidth=2;endArrow=none;endFill=0;" edge="1" parent="1" source="g2LQDgr9Wa3P3ohkHAGx-62" target="g2LQDgr9Wa3P3ohkHAGx-76">
          <mxGeometry relative="1" as="geometry" />
        </mxCell>
        <mxCell id="g2LQDgr9Wa3P3ohkHAGx-62" value="商家" style="shape=umlActor;verticalLabelPosition=bottom;verticalAlign=top;html=1;outlineConnect=0;strokeWidth=2;" vertex="1" parent="1">
          <mxGeometry x="1370" y="770" width="30" height="40" as="geometry" />
        </mxCell>
        <mxCell id="g2LQDgr9Wa3P3ohkHAGx-63" style="edgeStyle=none;rounded=0;orthogonalLoop=1;jettySize=auto;html=1;entryX=1;entryY=1;entryDx=0;entryDy=0;dashed=1;strokeWidth=2;" edge="1" parent="1" source="g2LQDgr9Wa3P3ohkHAGx-65" target="g2LQDgr9Wa3P3ohkHAGx-47">
          <mxGeometry relative="1" as="geometry" />
        </mxCell>
        <mxCell id="g2LQDgr9Wa3P3ohkHAGx-64" style="edgeStyle=none;rounded=0;orthogonalLoop=1;jettySize=auto;html=1;entryX=0;entryY=0.5;entryDx=0;entryDy=0;dashed=1;strokeWidth=2;endArrow=none;endFill=0;" edge="1" parent="1" source="g2LQDgr9Wa3P3ohkHAGx-65" target="g2LQDgr9Wa3P3ohkHAGx-80">
          <mxGeometry relative="1" as="geometry" />
        </mxCell>
        <mxCell id="g2LQDgr9Wa3P3ohkHAGx-65" value="服务商" style="shape=umlActor;verticalLabelPosition=bottom;verticalAlign=top;html=1;outlineConnect=0;strokeWidth=2;" vertex="1" parent="1">
          <mxGeometry x="1650" y="770" width="30" height="40" as="geometry" />
        </mxCell>
        <mxCell id="g2LQDgr9Wa3P3ohkHAGx-66" style="edgeStyle=none;rounded=0;orthogonalLoop=1;jettySize=auto;html=1;exitX=0.75;exitY=1;exitDx=0;exitDy=0;strokeWidth=2;fillColor=#f8cecc;strokeColor=#b85450;" edge="1" parent="1" source="g2LQDgr9Wa3P3ohkHAGx-52" target="g2LQDgr9Wa3P3ohkHAGx-52">
          <mxGeometry relative="1" as="geometry" />
        </mxCell>
        <mxCell id="g2LQDgr9Wa3P3ohkHAGx-67" value="" style="rounded=1;whiteSpace=wrap;html=1;strokeWidth=2;" vertex="1" parent="1">
          <mxGeometry x="1410" y="880" width="240" height="90" as="geometry" />
        </mxCell>
        <mxCell id="g2LQDgr9Wa3P3ohkHAGx-68" value="差评自动投诉" style="rounded=1;whiteSpace=wrap;html=1;strokeWidth=2;fillColor=#dae8fc;strokeColor=#6c8ebf;" vertex="1" parent="1">
          <mxGeometry x="1420" y="890" width="100" height="30" as="geometry" />
        </mxCell>
        <mxCell id="g2LQDgr9Wa3P3ohkHAGx-69" value="超时自动认责" style="rounded=1;whiteSpace=wrap;html=1;strokeWidth=2;fillColor=#dae8fc;strokeColor=#6c8ebf;" vertex="1" parent="1">
          <mxGeometry x="1420" y="930" width="100" height="30" as="geometry" />
        </mxCell>
        <mxCell id="g2LQDgr9Wa3P3ohkHAGx-70" value="消费者超时自动评价" style="rounded=1;whiteSpace=wrap;html=1;strokeWidth=2;fillColor=#dae8fc;strokeColor=#6c8ebf;" vertex="1" parent="1">
          <mxGeometry x="1540" y="890" width="100" height="30" as="geometry" />
        </mxCell>
        <mxCell id="g2LQDgr9Wa3P3ohkHAGx-71" value="商家超时自动评价" style="rounded=1;whiteSpace=wrap;html=1;strokeWidth=2;arcSize=0;fillColor=#dae8fc;strokeColor=#6c8ebf;" vertex="1" parent="1">
          <mxGeometry x="1540" y="930" width="100" height="30" as="geometry" />
        </mxCell>
        <mxCell id="g2LQDgr9Wa3P3ohkHAGx-72" value="" style="rounded=1;whiteSpace=wrap;html=1;strokeWidth=2;" vertex="1" parent="1">
          <mxGeometry x="1740" y="490" width="120" height="130" as="geometry" />
        </mxCell>
        <mxCell id="g2LQDgr9Wa3P3ohkHAGx-73" value="投诉单列表" style="rounded=1;whiteSpace=wrap;html=1;strokeWidth=2;fillColor=#dae8fc;strokeColor=#6c8ebf;" vertex="1" parent="1">
          <mxGeometry x="1750" y="500" width="100" height="30" as="geometry" />
        </mxCell>
        <mxCell id="g2LQDgr9Wa3P3ohkHAGx-74" value="投诉单管理" style="rounded=1;whiteSpace=wrap;html=1;strokeWidth=2;fillColor=#dae8fc;strokeColor=#6c8ebf;" vertex="1" parent="1">
          <mxGeometry x="1750" y="580" width="100" height="30" as="geometry" />
        </mxCell>
        <mxCell id="g2LQDgr9Wa3P3ohkHAGx-75" value="投诉问题配置" style="rounded=1;whiteSpace=wrap;html=1;strokeWidth=2;fillColor=#dae8fc;strokeColor=#6c8ebf;" vertex="1" parent="1">
          <mxGeometry x="1750" y="540" width="100" height="30" as="geometry" />
        </mxCell>
        <mxCell id="g2LQDgr9Wa3P3ohkHAGx-76" value="" style="rounded=1;whiteSpace=wrap;html=1;strokeWidth=2;" vertex="1" parent="1">
          <mxGeometry x="1190" y="750" width="120" height="170" as="geometry" />
        </mxCell>
        <mxCell id="g2LQDgr9Wa3P3ohkHAGx-77" value="工单列表关联投诉" style="rounded=1;whiteSpace=wrap;html=1;strokeWidth=2;fillColor=#dae8fc;strokeColor=#6c8ebf;" vertex="1" parent="1">
          <mxGeometry x="1200" y="760" width="100" height="30" as="geometry" />
        </mxCell>
        <mxCell id="g2LQDgr9Wa3P3ohkHAGx-78" value="投诉单列表" style="rounded=1;whiteSpace=wrap;html=1;strokeWidth=2;fillColor=#dae8fc;strokeColor=#6c8ebf;" vertex="1" parent="1">
          <mxGeometry x="1200" y="800" width="100" height="30" as="geometry" />
        </mxCell>
        <mxCell id="g2LQDgr9Wa3P3ohkHAGx-79" value="投诉入口" style="rounded=1;whiteSpace=wrap;html=1;strokeWidth=2;fillColor=#dae8fc;strokeColor=#6c8ebf;" vertex="1" parent="1">
          <mxGeometry x="1200" y="840" width="100" height="30" as="geometry" />
        </mxCell>
        <mxCell id="g2LQDgr9Wa3P3ohkHAGx-80" value="" style="rounded=1;whiteSpace=wrap;html=1;strokeWidth=2;" vertex="1" parent="1">
          <mxGeometry x="1740" y="750" width="120" height="130" as="geometry" />
        </mxCell>
        <mxCell id="g2LQDgr9Wa3P3ohkHAGx-81" value="top 消息" style="rounded=1;whiteSpace=wrap;html=1;strokeWidth=2;fillColor=#dae8fc;strokeColor=#6c8ebf;" vertex="1" parent="1">
          <mxGeometry x="1750" y="760" width="100" height="30" as="geometry" />
        </mxCell>
        <mxCell id="g2LQDgr9Wa3P3ohkHAGx-82" value="top 接口" style="rounded=1;whiteSpace=wrap;html=1;strokeWidth=2;fillColor=#dae8fc;strokeColor=#6c8ebf;" vertex="1" parent="1">
          <mxGeometry x="1750" y="800" width="100" height="30" as="geometry" />
        </mxCell>
        <mxCell id="g2LQDgr9Wa3P3ohkHAGx-83" value="ascp 工作台" style="rounded=1;whiteSpace=wrap;html=1;strokeWidth=2;fillColor=#dae8fc;strokeColor=#6c8ebf;" vertex="1" parent="1">
          <mxGeometry x="1750" y="840" width="100" height="30" as="geometry" />
        </mxCell>
        <mxCell id="g2LQDgr9Wa3P3ohkHAGx-84" value="" style="rounded=1;whiteSpace=wrap;html=1;strokeWidth=2;" vertex="1" parent="1">
          <mxGeometry x="1190" y="490" width="120" height="130" as="geometry" />
        </mxCell>
        <mxCell id="g2LQDgr9Wa3P3ohkHAGx-85" value="服务详情投诉" style="rounded=1;whiteSpace=wrap;html=1;strokeWidth=2;fillColor=#dae8fc;strokeColor=#6c8ebf;" vertex="1" parent="1">
          <mxGeometry x="1200" y="500" width="100" height="30" as="geometry" />
        </mxCell>
        <mxCell id="g2LQDgr9Wa3P3ohkHAGx-86" value="投诉进度" style="rounded=1;whiteSpace=wrap;html=1;strokeWidth=2;fillColor=#dae8fc;strokeColor=#6c8ebf;" vertex="1" parent="1">
          <mxGeometry x="1200" y="540" width="100" height="30" as="geometry" />
        </mxCell>
        <mxCell id="g2LQDgr9Wa3P3ohkHAGx-87" value="投诉评价" style="rounded=1;whiteSpace=wrap;html=1;strokeWidth=2;fillColor=#dae8fc;strokeColor=#6c8ebf;" vertex="1" parent="1">
          <mxGeometry x="1200" y="580" width="100" height="30" as="geometry" />
        </mxCell>
        <mxCell id="g2LQDgr9Wa3P3ohkHAGx-88" value="千牛客服插件" style="rounded=1;whiteSpace=wrap;html=1;strokeWidth=2;fillColor=#dae8fc;strokeColor=#6c8ebf;" vertex="1" parent="1">
          <mxGeometry x="1200" y="880" width="100" height="30" as="geometry" />
        </mxCell>
        <mxCell id="g2LQDgr9Wa3P3ohkHAGx-89" value="投诉赔付核心" style="text;html=1;strokeColor=none;fillColor=none;align=center;verticalAlign=middle;whiteSpace=wrap;rounded=0;" vertex="1" parent="1">
          <mxGeometry x="1482.5" y="650" width="85" height="30" as="geometry" />
        </mxCell>
      </root>
    </mxGraphModel>
  </diagram>
</mxfile>
